HIERARCHY
ROOT root
{
	OFFSET 0.000000 0.000000 0.000000
	CHANNELS 6 Xposition Yposition Zposition Zrotation Yrotation Xrotation
	JOINT lhip
	{
		OFFSET 0.058581 -0.082280 -0.017664
		CHANNELS 3 Zrotation Yrotation Xrotation
		JOINT lknee
		{
			OFFSET 0.043451 -0.386469 0.008037
			CHANNELS 3 Zrotation Yrotation Xrotation
			JOINT lankle
			{
				OFFSET -0.014790 -0.426874 -0.037428
				CHANNELS 3 Zrotation Yrotation Xrotation
				JOINT ltoe
				{
					OFFSET 0.041054 -0.060286 0.122042
					CHANNELS 3 Zrotation Yrotation Xrotation
					End Site
					{
						OFFSET 0.000000 0.000000 0.000000
					}
				}
			}
		}
	}
	JOINT rhip
	{
		OFFSET -0.060310 -0.090513 -0.013543
		CHANNELS 3 Zrotation Yrotation Xrotation
		JOINT rknee
		{
			OFFSET -0.043257 -0.383688 -0.004843
			CHANNELS 3 Zrotation Yrotation Xrotation
			JOINT rankle
			{
				OFFSET 0.019056 -0.420046 -0.034562
				CHANNELS 3 Zrotation Yrotation Xrotation
				JOINT rtoe
				{
					OFFSET -0.034840 -0.062106 0.130323
					CHANNELS 3 Zrotation Yrotation Xrotation
					End Site
					{
						OFFSET 0.000000 0.000000 0.000000
					}
				}
			}
		}
	}
	JOINT lowerback
	{
		OFFSET 0.004439 0.124404 -0.038385
		CHANNELS 3 Zrotation Yrotation Xrotation
		JOINT upperback
		{
			OFFSET 0.004488 0.137956 0.026820
			CHANNELS 3 Zrotation Yrotation Xrotation
			JOINT chest
			{
				OFFSET -0.002265 0.056032 0.002855
				CHANNELS 3 Zrotation Yrotation Xrotation
				JOINT lowerneck
				{
					OFFSET -0.013390 0.211636 -0.033468
					CHANNELS 3 Zrotation Yrotation Xrotation
					JOINT upperneck
					{
						OFFSET 0.010113 0.088937 0.050410
						CHANNELS 3 Zrotation Yrotation Xrotation
						End Site
						{
							OFFSET 0.000000 0.000000 0.000000
						}
					}
				}
				JOINT lclavicle
				{
					OFFSET 0.071702 0.114000 -0.018898
					CHANNELS 3 Zrotation Yrotation Xrotation
					JOINT lshoulder
					{
						OFFSET 0.122921 0.045205 -0.019046
						CHANNELS 3 Zrotation Yrotation Xrotation
						JOINT lelbow
						{
							OFFSET 0.255332 -0.015649 -0.022946
							CHANNELS 3 Zrotation Yrotation Xrotation
							JOINT lwrist
							{
								OFFSET 0.265709 0.012698 -0.007375
								CHANNELS 3 Zrotation Yrotation Xrotation
								End Site
								{
									OFFSET 0.000000 0.000000 0.000000
								}
							}
						}
					}
				}
				JOINT rclavicle
				{
					OFFSET -0.082954 0.112472 -0.023707
					CHANNELS 3 Zrotation Yrotation Xrotation
					JOINT rshoulder
					{
						OFFSET -0.113228 0.046853 -0.008472
						CHANNELS 3 Zrotation Yrotation Xrotation
						JOINT relbow
						{
							OFFSET -0.260127 -0.014369 -0.031269
							CHANNELS 3 Zrotation Yrotation Xrotation
							JOINT rwrist
							{
								OFFSET -0.269108 0.006794 -0.006027
								CHANNELS 3 Zrotation Yrotation Xrotation
								End Site
								{
									OFFSET 0.000000 0.000000 0.000000
								}
							}
						}
					}
				}
			}
		}
	}
}
MOTION
Frames: 16
Frame Time: 0.033333
0.128988 -1.609191 0.956919 -90.357937 2.326720 89.685011 14.198791 8.592503 -26.597242 -1.933433 1.642523 26.956075 3.173617 8.097682 -13.056745 0.000000 -0.000000 0.000000 1.711833 -31.110140 -7.355948 11.989425 -3.038049 16.238615 -1.886519 10.818578 -23.189626 0.000000 -0.000000 0.000000 -0.953501 9.047499 8.466600 2.426865 -3.496245 -4.762112 3.448148 -1.588316 -2.064229 2.251465 11.257760 -7.855337 0.914791 3.810114 18.655384 -28.338193 0.708789 -3.277526 -54.726756 -4.916960 1.473176 11.417840 -18.743013 -0.914136 -1.072502 2.884382 -18.900682 30.134866 5.111018 2.471078 44.043917 12.467405 -4.629834 -2.292069 11.427119 -12.619594 -7.007437 0.034552 -18.909647 
0.128382 -1.608952 0.957833 -90.603459 2.345996 89.995693 13.983951 8.644210 -26.464072 -1.256322 1.523138 26.350449 4.712066 8.296903 -12.678721 0.000000 -0.000000 0.000000 1.930651 -30.781457 -7.299927 12.196250 -2.616167 15.479800 -1.497114 10.527322 -22.473237 0.000000 -0.000000 0.000000 -1.266364 9.111061 7.965284 2.600652 -3.487262 -4.373293 3.279266 -1.636262 -2.318245 3.892980 11.761398 -7.614872 1.967610 3.569829 19.243789 -28.114773 0.404841 -2.674705 -53.405084 -3.432289 3.812489 6.015261 -24.435685 13.560020 -7.273519 -1.373264 -11.038721 29.585789 4.948664 3.243491 46.428490 11.095514 -1.808620 -0.243128 15.597788 -1.970730 -0.746318 2.937199 -15.298373 
0.127968 -1.609217 0.958222 -90.969151 2.313594 90.190087 14.071551 8.149410 -26.331651 -1.348821 1.514777 26.104530 5.153105 9.275587 -12.396198 0.000000 -0.000000 0.000000 1.958754 -30.525790 -7.556058 12.470102 -2.064786 15.534666 -1.109778 10.180577 -22.087554 0.000000 -0.000000 0.000000 -1.404189 9.327325 7.584297 2.733106 -3.639527 -4.095630 3.079677 -1.593672 -2.226509 4.855559 11.735033 -7.842201 3.151594 3.032537 19.800713 -27.380358 -0.206955 -2.509651 -52.066471 -2.782223 6.227133 0.485003 -28.835953 21.331897 -4.954420 -2.224053 -7.542350 28.885752 4.950825 3.381140 47.433389 9.793346 1.450270 3.076609 19.581068 7.951822 3.500928 3.511068 -10.690347 
0.127545 -1.609312 0.957951 -91.386475 2.331228 90.267810 14.728479 7.063485 -26.219134 -1.945681 2.023244 26.258513 5.277546 10.569312 -12.366482 0.000000 -0.000000 0.000000 2.313502 -29.831206 -7.667994 12.305706 -1.535889 15.177448 -1.073064 9.152406 -21.913488 0.000000 -0.000000 0.000000 -1.764454 9.371430 7.403242 3.054189 -3.805804 -4.072856 3.350766 -1.463188 -1.985303 5.168181 11.287579 -7.859662 4.121163 2.881158 20.021542 -26.710410 -1.076580 -2.489736 -51.166905 -2.219635 8.011738 -3.823863 -32.493683 24.846626 -1.288846 -2.223688 -6.606151 27.991221 5.723881 3.286388 47.227336 8.534436 4.580501 6.938204 23.459400 16.145612 6.987895 2.212720 -9.379146 
0.127092 -1.608829 0.956941 -91.652772 2.283593 90.276897 15.436012 6.643014 -26.189954 -2.749296 2.729090 26.595888 5.073424 11.056676 -12.627771 0.000000 -0.000000 0.000000 1.843052 -30.227145 -7.348378 13.138416 -1.260751 15.076646 -0.651729 9.436319 -21.638787 0.000000 -0.000000 0.000000 -2.322419 9.460128 7.227366 3.379901 -4.025393 -4.024965 3.706150 -1.409090 -1.738597 5.644637 10.934728 -7.894979 4.863903 3.150015 20.627712 -26.258932 -1.849971 -2.699980 -50.576601 -1.982423 9.384067 -6.121700 -34.814514 26.324279 4.853343 -3.925277 -5.407568 27.490874 6.908819 2.922265 46.484801 7.949752 6.584676 10.283051 25.292394 21.436394 7.078361 1.995854 -8.300015 
0.126261 -1.609249 0.956156 -91.595630 2.206479 90.210637 15.748130 6.205451 -26.087677 -3.278396 3.194593 26.719932 3.738881 10.998360 -13.142227 0.000000 -0.000000 0.000000 1.715294 -29.653854 -6.887747 13.018557 -1.528531 14.341710 -0.574841 9.160584 -21.708740 0.000000 -0.000000 0.000000 -2.526903 9.424668 6.942283 3.552125 -4.279972 -3.543634 3.835764 -1.528798 -1.775929 6.233986 10.822977 -7.708819 5.042497 2.824814 20.781246 -26.046221 -2.387860 -2.759110 -50.120475 -2.372779 10.368271 -6.634480 -35.718343 25.169335 8.371726 -5.516180 -5.435151 27.485521 7.762770 2.739793 45.344176 8.522263 8.201391 12.478156 25.328489 24.116977 5.104495 2.521469 -6.811916 
0.127636 -1.609995 0.954527 -91.980300 1.857185 90.623939 15.583683 6.402605 -26.567032 -3.548306 3.689379 26.844125 3.178735 10.835732 -13.017320 0.000000 -0.000000 0.000000 1.100536 -29.350931 -7.922561 13.449882 -2.312962 15.382924 -0.402933 10.042690 -21.722510 0.000000 -0.000000 0.000000 -2.715054 9.457705 6.927211 3.498137 -4.098560 -4.084047 3.821378 -1.635541 -1.588947 6.775976 10.947927 -7.700307 4.968190 1.852165 21.202111 -25.637884 -2.797071 -2.723174 -50.210647 -3.418041 10.714076 -5.998221 -35.106470 23.260900 9.848932 -6.418647 -6.625950 27.534947 8.096996 2.818403 44.515177 9.775539 8.686553 13.208074 24.639147 25.637563 2.330703 3.571910 -5.259821 
0.130526 -1.609947 0.951901 -92.851275 1.243789 91.286690 14.905378 7.026220 -27.204971 -3.416531 4.046291 26.747396 3.498663 11.104376 -12.723478 0.000000 -0.000000 0.000000 0.957098 -28.504937 -9.874886 13.099620 -3.019360 16.712681 -0.524629 10.484431 -21.795797 0.000000 -0.000000 0.000000 -3.109390 9.320762 7.357418 3.137959 -3.394707 -5.682024 3.890160 -1.638692 -0.985657 7.161402 10.865901 -7.744001 4.974668 0.861026 21.612742 -25.158519 -2.822761 -3.039410 -50.866247 -4.759086 10.594881 -4.593204 -33.383746 22.060021 9.656563 -5.779738 -7.419164 27.147648 8.076206 2.767217 44.636674 10.985132 8.854622 12.796259 24.259733 26.205728 -1.194557 3.639029 -5.064000 
0.131387 -1.609280 0.950755 -92.951459 1.387076 91.598151 14.759027 7.820489 -27.757632 -2.942395 3.981010 27.034286 3.921611 10.685939 -12.842336 0.000000 -0.000000 0.000000 1.881476 -28.307602 -10.488811 12.415978 -2.709059 16.493943 -0.566345 9.860414 -21.701953 0.000000 -0.000000 0.000000 -3.018641 9.141676 7.326017 3.244224 -3.390159 -6.288098 3.906751 -1.553887 -0.757284 7.272556 10.282873 -7.547969 5.094058 0.444800 21.716796 -25.007027 -2.658529 -3.061459 -51.575708 -6.088694 9.705119 -2.654280 -31.463222 21.201851 10.547566 -4.729434 -7.406737 26.656726 7.763162 2.518651 45.540344 11.660828 8.322123 10.988805 24.191181 25.152345 -3.892589 3.380600 -5.644468 
0.131842 -1.609360 0.950435 -93.158044 1.411006 91.567137 14.634123 8.222290 -27.721059 -2.866641 3.781124 27.089331 3.949554 10.386141 -12.775870 0.000000 -0.000000 0.000000 2.091553 -28.054107 -10.653643 12.186493 -2.346084 16.543715 -0.577798 9.481944 -21.516020 0.000000 -0.000000 0.000000 -3.302924 8.742523 6.901111 3.509130 -3.457678 -5.975264 4.176994 -1.279829 -0.461558 7.189219 9.686787 -7.308385 5.124352 0.454731 21.590785 -25.203757 -2.708163 -3.274701 -52.146145 -6.885022 8.857294 -0.453567 -29.859752 19.460259 10.754989 -3.334891 -7.225585 26.399136 7.780166 2.437651 45.810299 12.156292 7.266736 9.086344 24.535459 22.684756 -5.149993 2.666179 -6.872024 
0.132513 -1.609381 0.949933 -93.419980 1.257343 91.563655 14.401966 8.119578 -27.710884 -2.477547 3.785717 27.168570 5.533340 10.826470 -12.833157 0.000000 -0.000000 0.000000 2.061225 -27.383683 -11.066038 11.969998 -2.420924 16.987225 -0.676233 9.087671 -21.656444 0.000000 -0.000000 0.000000 -3.104888 8.835824 7.491554 3.312634 -3.298097 -6.843700 3.911567 -1.515176 -0.353875 7.563394 9.383196 -7.297034 5.032737 -0.199411 21.925063 -24.912310 -2.282292 -3.190676 -52.629412 -7.685540 8.459599 1.100819 -28.624908 17.221973 11.597948 -2.601016 -7.925659 26.179597 6.945019 1.951024 46.818550 12.657044 6.826079 7.307331 24.347121 19.150828 -7.308044 2.201119 -8.560513 
0.132590 -1.609443 0.949874 -93.819765 1.134555 91.327487 14.461854 7.748422 -27.174057 -2.445923 4.258833 26.928977 5.568983 11.394934 -12.806238 0.000000 -0.000000 0.000000 1.812603 -26.245636 -11.063133 11.923716 -3.005563 17.366269 -0.535001 8.701795 -21.849655 0.000000 -0.000000 0.000000 -3.144076 8.809121 7.810765 3.231157 -3.076064 -7.018631 3.835255 -1.567709 -0.369436 7.900166 9.236474 -7.189241 4.862976 -0.537041 21.966420 -24.740133 -2.118052 -3.136950 -52.917141 -7.896349 8.378510 2.352630 -27.804735 14.921763 13.171985 -2.688780 -8.198231 26.026073 6.399684 1.574864 47.466271 12.914254 6.168506 5.857853 23.955239 15.332324 -8.685474 1.982787 -10.407586 
0.133060 -1.609146 0.949396 -94.143895 1.081976 91.143182 14.552900 7.367616 -26.852642 -2.584011 4.073095 27.002060 5.563040 11.856911 -12.967781 0.000000 -0.000000 0.000000 1.782324 -25.198026 -10.934474 11.736270 -3.305526 17.262868 -0.737910 8.236533 -22.018141 0.000000 -0.000000 0.000000 -3.035053 8.700609 8.288597 3.075329 -2.950612 -7.457999 3.737496 -1.507152 -0.269360 7.945386 9.141215 -7.410443 4.824049 -0.906410 22.131541 -24.699700 -2.138571 -3.156918 -52.679520 -7.547227 8.315978 2.560054 -27.586071 13.413064 14.153558 -2.839876 -8.441866 25.795824 6.146730 1.261348 48.094014 12.652061 5.727296 4.735922 24.041339 12.590224 -9.220098 1.290342 -11.907771 
0.133633 -1.608662 0.948482 -94.409471 0.996818 91.159802 14.636244 7.311935 -26.884754 -2.721047 4.291349 27.182505 5.667477 12.138139 -13.147651 0.000000 -0.000000 0.000000 1.896557 -24.384032 -11.313887 11.441792 -3.549673 17.635079 -0.991520 7.825904 -22.312002 0.000000 -0.000000 0.000000 -2.988749 8.531740 8.381614 2.926105 -2.781947 -7.749479 3.585590 -1.363254 -0.075080 7.827721 9.067942 -7.835748 4.756332 -1.061042 22.264214 -24.723268 -2.107356 -3.303087 -52.198321 -7.057038 8.371707 2.173343 -27.502106 13.407546 14.061026 -3.113891 -8.368438 25.580531 6.001151 1.013894 48.398378 12.243354 5.396457 4.272725 23.793342 11.048863 -9.477791 1.166048 -12.814756 
0.126807 -1.608893 0.951876 -93.012333 2.206668 90.035860 15.799781 7.492756 -25.748932 -2.925136 3.275820 27.510266 5.658219 11.150140 -13.882744 0.000000 -0.000000 0.000000 2.147487 -26.742148 -7.775792 12.429981 -1.321395 15.258608 -0.462635 7.137985 -21.537334 0.000000 -0.000000 0.000000 -2.700027 8.628487 6.722266 4.191099 -4.316316 -4.410923 3.648630 -1.327167 -1.201666 7.653822 8.275823 -7.514613 4.726881 -0.592682 21.905232 -25.353259 -1.899049 -2.517271 -51.193958 -6.516622 7.911643 1.646804 -27.897427 14.722515 14.349670 -3.185680 -9.102626 26.063376 5.842249 1.473795 47.381374 11.683322 4.796026 3.915697 23.483263 10.281301 -9.460122 1.212426 -12.090251 
0.126566 -1.609318 0.952474 -93.210129 2.305515 89.905605 15.899199 7.650922 -25.529389 -2.876176 3.319539 27.375057 5.511528 11.249140 -13.784290 0.000000 -0.000000 0.000000 2.312468 -26.582887 -7.717105 12.263944 -1.340332 15.265991 -0.608544 7.197432 -21.714267 0.000000 -0.000000 0.000000 -2.792629 8.607752 6.889610 4.233502 -4.146105 -4.538722 3.703160 -1.337879 -1.289866 7.752483 8.566306 -7.814339 4.471433 -1.051268 21.736890 -25.328029 -1.575856 -2.361806 -50.881488 -5.878757 7.841909 1.543514 -27.998599 15.707094 13.217513 -3.111392 -9.349658 26.380366 5.774253 1.590456 46.989480 11.206085 4.682094 3.472177 22.547690 10.571356 -9.686218 1.369901 -11.693737 
